<svg width="512" height="512" viewBox="0 0 512 512" fill="none" xmlns="http://www.w3.org/2000/svg">
<g clip-path="url(#clip0_2801_1639)">
<rect width="512" height="512" fill="#209CEE" style="fill:#209CEE;fill:color(display-p3 0.1255 0.6118 0.9333);fill-opacity:1;"/>
<path d="M365.7 132.45C380.2 146.467 391.558 165.075 399.775 188.275C407.992 210.992 412.1 232.742 412.1 253.525C412.1 305.725 397.6 347.775 368.6 379.675C339.6 411.092 298.758 426.8 246.075 426.8C220.458 426.8 197.5 423.417 177.2 416.65C157.383 409.4 140.225 396.833 125.725 378.95C117.508 369.283 110.983 357.2 106.15 342.7C101.8 328.2 99.625 312.975 99.625 297.025C99.625 282.042 103.733 267.783 111.95 254.25C120.167 240.717 131.283 230.083 145.3 222.35C159.317 214.133 174.058 210.025 189.525 210.025C207.408 210.025 223.358 215.825 237.375 227.425C251.875 238.542 259.125 253.042 259.125 270.925C259.125 288.325 253.083 304.517 241 319.5C228.917 334 214.175 341.25 196.775 341.25C186.625 341.25 177.442 340.042 169.225 337.625C175.508 350.192 185.9 359.133 200.4 364.45C215.383 369.283 230.608 371.7 246.075 371.7C259.125 371.7 272.175 368.8 285.225 363C298.758 356.717 309.633 348.742 317.85 339.075C326.55 328.442 332.35 316.117 335.25 302.1C338.633 288.083 340.325 271.65 340.325 252.8C340.325 239.75 338.15 227.667 333.8 216.55C329.45 205.433 322.442 193.108 312.775 179.575C307.942 172.325 298.033 166.042 283.05 160.725C268.55 154.925 256.225 152.025 246.075 152.025C234.958 152.025 221.908 153.958 206.925 157.825C192.425 161.208 181.067 165.8 172.85 171.6C162.217 178.85 154.483 183.925 149.65 186.825C144.817 189.725 139.258 191.175 132.975 191.175C124.758 191.175 117.992 188.275 112.675 182.475C107.842 176.675 105.425 169.425 105.425 160.725C105.425 147.675 110.5 137.283 120.65 129.55C131.283 121.333 146.508 112.392 166.325 102.725C184.692 93.5416 209.1 88.95 239.55 88.95C270.483 88.95 294.892 92.0916 312.775 98.375C330.658 104.175 348.3 115.533 365.7 132.45ZM216.35 276C216.35 257.633 207.408 248.45 189.525 248.45C179.858 248.45 172.367 251.35 167.05 257.15C161.733 262.95 159.075 270.925 159.075 281.075C159.075 288.325 161.975 294.367 167.775 299.2C173.575 303.55 180.1 305.725 187.35 305.725C195.083 305.725 201.85 302.825 207.65 297.025C213.45 291.225 216.35 284.217 216.35 276Z" fill="white" style="fill:white;fill-opacity:1;"/>
</g>
<defs>
<clipPath id="clip0_2801_1639">
<rect width="512" height="512" fill="white" style="fill:white;fill-opacity:1;"/>
</clipPath>
</defs>
</svg>
